# xmcd
#
# Track frame offsets:
# 150
# 20602
# 37782
# 54622
# 72412
# 86647
# 103267
# 121960
# 140715
# 152575
#
# Disc length: 2221 seconds
#
#
# Revision: 0
# Processed by: cddbd v1.5.2PL0 Copyright (c) Steve Scherf et al.
# Submitted via: Nero 7, 11, 10, 0 
#
DISCID=8708ab0a
DTITLE=Mikael Santana - Night Flight
DYEAR=2000
DGENRE=Blues
TTITLE0=Night Flight
TTITLE1=Winner Take All
TTITLE2=Jeannine
TTITLE3=Sweet Temptation
TTITLE4=Time To Play
TTITLE5=Alexander Street Hop
TTITLE6=Strawberry Blonde
TTITLE7='66 Mustang
TTITLE8=Come On And Dance With Me, Camille
TTITLE9=Runway 6
EXTD=
EXTT0=Night Flight
EXTT1=Winner Take All
EXTT2=Jeannine
EXTT3=Sweet Temptation
EXTT4=Time To Play
EXTT5=Alexander Street Hop
EXTT6=Strawberry Blonde
EXTT7='66 Mustang
EXTT8=Come On And Dance With Me, Camille
EXTT9=Runway 6
PLAYORDER=
